<svg aria-hidden="true" style="position: absolute; width: 0; height: 0; overflow: hidden;" version="1.1" xmlns="http://www.w3.org/2000/svg" xmlns:xlink="http://www.w3.org/1999/xlink">
<defs>
<symbol id="icon-add" viewBox="0 0 32 32">
<path fill="none" stroke="#f48982" style="stroke: var(--color1, #f48982)" stroke-linejoin="round" stroke-linecap="round" stroke-miterlimit="4" stroke-width="1.9846" d="M31.008 16c0 8.288-6.719 15.007-15.007 15.007s-15.007-6.719-15.007-15.007c0-8.288 6.719-15.007 15.007-15.007h0c0 0 0 0 0.001 0 8.288 0 15.007 6.719 15.007 15.007v0z"></path>
<path fill="none" stroke="#f48982" style="stroke: var(--color1, #f48982)" stroke-linejoin="round" stroke-linecap="round" stroke-miterlimit="4" stroke-width="1.9846" d="M16 9.997v12.006"></path>
<path fill="none" stroke="#f48982" style="stroke: var(--color1, #f48982)" stroke-linejoin="round" stroke-linecap="round" stroke-miterlimit="4" stroke-width="1.9846" d="M9.997 16h12.006"></path>
</symbol>
<symbol id="icon-check" viewBox="0 0 32 32">
<path fill="none" stroke="#f48982" style="stroke: var(--color1, #f48982)" stroke-linejoin="round" stroke-linecap="round" stroke-miterlimit="4" stroke-width="1.9846" d="M31.008 16c0 8.288-6.719 15.007-15.007 15.007s-15.007-6.719-15.007-15.007c0-8.288 6.719-15.007 15.007-15.007h0c0 0 0 0 0.001 0 8.288 0 15.007 6.719 15.007 15.007v0z"></path>
<path fill="#f48982" style="fill: var(--color1, #f48982)" d="M12.734 19.87l-4.168-4.168-1.389 1.389 5.557 5.557 11.907-11.907-1.389-1.389z"></path>
</symbol>
<symbol id="icon-remove" viewBox="0 0 32 32">
<path fill="none" stroke="#f48982" style="stroke: var(--color1, #f48982)" stroke-linejoin="round" stroke-linecap="round" stroke-miterlimit="4" stroke-width="1.9846" d="M31.008 16c0 8.288-6.719 15.007-15.007 15.007s-15.007-6.719-15.007-15.007c0-8.288 6.719-15.007 15.007-15.007h0c0 0 0 0 0.001 0 8.288 0 15.007 6.719 15.007 15.007v0z"></path>
<path fill="none" stroke="#f48982" style="stroke: var(--color1, #f48982)" stroke-linejoin="round" stroke-linecap="round" stroke-miterlimit="4" stroke-width="1.9846" d="M20.244 11.755l-8.49 8.49"></path>
<path fill="none" stroke="#f48982" style="stroke: var(--color1, #f48982)" stroke-linejoin="round" stroke-linecap="round" stroke-miterlimit="4" stroke-width="1.9846" d="M11.755 11.755l8.49 8.49"></path>
</symbol>
<symbol id="icon-search" viewBox="0 0 32 32">
<path fill="#f48982" style="fill: var(--color1, #f48982)" d="M31.617 29.684l-8.898-8.981c1.711-2.142 2.746-4.89 2.746-7.879 0-7.002-5.676-12.679-12.679-12.679s-12.679 5.676-12.679 12.679c0 7.002 5.676 12.679 12.679 12.679 3.048 0 5.844-1.075 8.031-2.867l-0.022 0.018 8.839 8.923c0.25 0.262 0.602 0.425 0.991 0.425 0.365 0 0.696-0.143 0.942-0.375l-0.001 0.001c0.262-0.251 0.425-0.605 0.425-0.996 0-0.366-0.143-0.699-0.376-0.946l0.001 0.001zM12.755 22.761c-5.529-0.001-10.010-4.483-10.010-10.013s4.483-10.013 10.013-10.013 10.013 4.483 10.013 10.013c0 2.765-1.121 5.268-2.933 7.080v0c-1.802 1.811-4.297 2.932-7.054 2.932-0.010 0-0.020 0-0.029-0h0.002z"></path>
</symbol>
<symbol xmlns="http://www.w3.org/2000/svg" id="icon-smile" viewBox="0 0 24 24">
<path d="M23 12c0-3.037-1.232-5.789-3.222-7.778s-4.741-3.222-7.778-3.222-5.789 1.232-7.778 3.222-3.222 4.741-3.222 7.778 1.232 5.789 3.222 7.778 4.741 3.222 7.778 3.222 5.789-1.232 7.778-3.222 3.222-4.741 3.222-7.778zM21 12c0 2.486-1.006 4.734-2.636 6.364s-3.878 2.636-6.364 2.636-4.734-1.006-6.364-2.636-2.636-3.878-2.636-6.364 1.006-4.734 2.636-6.364 3.878-2.636 6.364-2.636 4.734 1.006 6.364 2.636 2.636 3.878 2.636 6.364zM7.2 14.6c0 0 0.131 0.173 0.331 0.383 0.145 0.153 0.338 0.341 0.577 0.54 0.337 0.281 0.772 0.59 1.297 0.853 0.705 0.352 1.579 0.624 2.595 0.624s1.89-0.272 2.595-0.624c0.525-0.263 0.96-0.572 1.297-0.853 0.239-0.199 0.432-0.387 0.577-0.54 0.2-0.21 0.331-0.383 0.331-0.383 0.331-0.442 0.242-1.069-0.2-1.4s-1.069-0.242-1.4 0.2c-0.041 0.050-0.181 0.206-0.181 0.206-0.1 0.105-0.237 0.239-0.408 0.382-0.243 0.203-0.549 0.419-0.91 0.6-0.48 0.239-1.050 0.412-1.701 0.412s-1.221-0.173-1.701-0.413c-0.36-0.18-0.667-0.397-0.91-0.6-0.171-0.143-0.308-0.277-0.408-0.382-0.14-0.155-0.181-0.205-0.181-0.205-0.331-0.442-0.958-0.531-1.4-0.2s-0.531 0.958-0.2 1.4zM9 10c0.552 0 1-0.448 1-1s-0.448-1-1-1-1 0.448-1 1 0.448 1 1 1zM15 10c0.552 0 1-0.448 1-1s-0.448-1-1-1-1 0.448-1 1 0.448 1 1 1z"/>
</symbol>
</defs>
</svg>
